grf
version=1
nRows=11
nColumns=37
inDegrees=no
endheader
time	ground_force_1_vx	ground_force_1_vy	ground_force_1_vz	ground_force_1_px	ground_force_1_py	ground_force_1_pz	ground_moment_1_mx	ground_moment_1_my	ground_moment_1_mz	ground_force_2_vx	ground_force_2_vy	ground_force_2_vz	ground_force_2_px	ground_force_2_py	ground_force_2_pz	ground_moment_2_mx	ground_moment_2_my	ground_moment_2_mz	ground_force_3_vx	ground_force_3_vy	ground_force_3_vz	ground_force_3_px	ground_force_3_py	ground_force_3_pz	ground_moment_3_mx	ground_moment_3_my	ground_moment_3_mz	ground_force_4_vx	ground_force_4_vy	ground_force_4_vz	ground_force_4_px	ground_force_4_py	ground_force_4_pz	ground_moment_4_mx	ground_moment_4_my	ground_moment_4_mz
      0.00000000	      0.00000000	     -0.00000000	      0.00000000	      0.00000000	      0.00000000	      0.00000000	      0.00000000	      0.00000000	      0.00000000	     12.97539997	     40.25851059	   -756.53405762	   -306.52701440	  -1046.82629717	      0.00000000	      0.00000000	      0.00000000	    257.76037446	     -5.90947906	    -20.91190859	   -177.85255432	   -205.06844038	   -697.91512037	      0.00000000	      0.00000000	     -0.00000000	  -1202.86299490	      0.00000000	     -0.00000000	      0.00000000	      0.00000000	      0.00000000	      0.00000000	      0.00000000	      0.00000000	      0.00000000
      0.01000000	      0.00000000	     -0.00000000	      0.00000000	      0.00000000	      0.00000000	      0.00000000	      0.00000000	      0.00000000	      0.00000000	     13.51783371	     41.15718460	   -769.17449951	   -306.78830311	  -1047.29433061	      0.00000000	      0.00000000	      0.00000000	    314.12046297	     -5.37010925	    -18.33701659	   -168.05146790	   -204.72181433	   -696.28521108	      0.00000000	      0.00000000	     -0.00000000	  -1073.46545874	      0.00000000	     -0.00000000	      0.00000000	      0.00000000	      0.00000000	      0.00000000	      0.00000000	      0.00000000	      0.00000000
      0.02000000	      0.00000000	     -0.00000000	      0.00000000	      0.00000000	      0.00000000	      0.00000000	      0.00000000	      0.00000000	      0.00000000	     14.28248882	     42.02311325	   -779.68701172	   -306.33361306	  -1047.55662360	      0.00000000	      0.00000000	      0.00000000	    433.83477079	     -3.90836096	    -16.34738697	   -154.45845032	   -202.29311000	   -700.97967076	      0.00000000	      0.00000000	     -0.00000000	  -1289.43105232	      0.00000000	     -0.00000000	      0.00000000	      0.00000000	      0.00000000	      0.00000000	      0.00000000	      0.00000000	      0.00000000
      0.03000000	      0.00000000	     -0.00000000	      0.00000000	      0.00000000	      0.00000000	      0.00000000	      0.00000000	      0.00000000	      0.00000000	     13.63701725	     42.09391022	   -786.97045898	   -306.16619745	  -1047.13412293	      0.00000000	      0.00000000	      0.00000000	    398.79787567	     -3.23588811	    -14.79183455	   -140.22599792	   -202.14990116	   -703.05938721	      0.00000000	      0.00000000	     -0.00000000	   -885.56793200	      0.00000000	     -0.00000000	      0.00000000	      0.00000000	      0.00000000	      0.00000000	      0.00000000	      0.00000000	      0.00000000
      0.04000000	      0.00000000	     -0.00000000	      0.00000000	      0.00000000	      0.00000000	      0.00000000	      0.00000000	      0.00000000	      0.00000000	     13.12217999	     41.89128876	   -795.35412598	   -305.37257489	  -1047.87963716	      0.00000000	      0.00000000	      0.00000000	    417.06223791	     -2.12591876	    -12.48686867	   -126.42880249	   -201.11565574	   -703.50082536	      0.00000000	      0.00000000	     -0.00000000	  -1022.47680315	      0.00000000	     -0.00000000	      0.00000000	      0.00000000	      0.00000000	      0.00000000	      0.00000000	      0.00000000	      0.00000000
      0.05000000	      0.00000000	     -0.00000000	      0.00000000	      0.00000000	      0.00000000	      0.00000000	      0.00000000	      0.00000000	      0.00000000	     12.02135849	     41.95741653	   -802.25018311	   -305.06055972	  -1048.04204095	      0.00000000	      0.00000000	      0.00000000	    328.87847372	     -1.22035405	    -10.58669652	   -111.46437073	   -198.13118312	   -708.99168097	      0.00000000	      0.00000000	     -0.00000000	   -966.94440883	      0.00000000	     -0.00000000	      0.00000000	      0.00000000	      0.00000000	      0.00000000	      0.00000000	      0.00000000	      0.00000000
      0.06000000	      0.00000000	     -0.00000000	      0.00000000	      0.00000000	      0.00000000	      0.00000000	      0.00000000	      0.00000000	      0.00000000	     11.26282883	     41.23396301	   -811.34259033	   -304.06091971	  -1048.47339573	      0.00000000	      0.00000000	      0.00000000	    359.59106331	     -0.43196050	     -8.56720348	    -95.66754150	   -197.84052854	   -710.72829757	      0.00000000	      0.00000000	     -0.00000000	   -720.54556429	      0.00000000	     -0.00000000	      0.00000000	      0.00000000	      0.00000000	      0.00000000	      0.00000000	      0.00000000	      0.00000000
      0.07000000	      0.00000000	     -0.00000000	      0.00000000	      0.00000000	      0.00000000	      0.00000000	      0.00000000	      0.00000000	      0.00000000	     10.49352837	     40.66489029	   -818.84991455	   -303.86501975	  -1048.74385089	      0.00000000	      0.00000000	      0.00000000	    636.68459632	      0.75415239	     -6.46950824	    -80.34796906	   -198.13821769	   -710.18050700	      0.00000000	      0.00000000	     -0.00000000	   -787.87819207	      0.00000000	     -0.00000000	      0.00000000	      0.00000000	      0.00000000	      0.00000000	      0.00000000	      0.00000000	      0.00000000
      0.08000000	      0.00000000	     -0.00000000	      0.00000000	      0.00000000	      0.00000000	      0.00000000	      0.00000000	      0.00000000	      0.00000000	      9.84634495	     40.28482819	   -826.52307129	   -303.04792954	  -1048.28909505	      0.00000000	      0.00000000	      0.00000000	    599.79146361	      1.09770148	     -4.91298733	    -60.49125671	   -192.83432371	   -725.18311482	      0.00000000	      0.00000000	     -0.00000000	   -599.14672303	      0.00000000	     -0.00000000	      0.00000000	      0.00000000	      0.00000000	      0.00000000	      0.00000000	      0.00000000	      0.00000000
      0.09000000	      0.00000000	     -0.00000000	      0.00000000	      0.00000000	      0.00000000	      0.00000000	      0.00000000	      0.00000000	      0.00000000	      9.87932682	     40.49826050	   -837.33819580	   -302.52180047	  -1048.29689118	      0.00000000	      0.00000000	      0.00000000	    857.30139567	      1.78471335	     -3.15710822	    -46.09421539	   -192.53553710	   -725.72241620	      0.00000000	      0.00000000	     -0.00000000	   -545.52139751	      0.00000000	     -0.00000000	      0.00000000	      0.00000000	      0.00000000	      0.00000000	      0.00000000	      0.00000000	      0.00000000
      0.10000000	      0.00000000	     -0.00000000	      0.00000000	      0.00000000	      0.00000000	      0.00000000	      0.00000000	      0.00000000	      0.00000000	      9.24493027	     39.86455154	   -849.34387207	   -302.11777488	  -1048.17015648	      0.00000000	      0.00000000	      0.00000000	    907.25560589	      2.48390179	     -2.14247344	    -31.69348335	   -190.10962549	   -744.22114252	      0.00000000	      0.00000000	     -0.00000000	   -316.17261016	      0.00000000	     -0.00000000	      0.00000000	      0.00000000	      0.00000000	      0.00000000	      0.00000000	      0.00000000	      0.00000000
